<svg xmlns="http://www.w3.org/2000/svg" viewBox="0 0 240 240" fill="none"><title>Luke installer volume icon</title><defs><linearGradient id="drive-cap" x1="0" y1="0" x2="0" y2="1"><stop offset="0" stop-color="#dbdbde"/><stop offset="1" stop-color="#cfcfd3"/></linearGradient><linearGradient id="drive-body" x1="0" y1="0" x2="0" y2="1"><stop offset="0" stop-color="#f7f7f8"/><stop offset="1" stop-color="#e8e8eb"/></linearGradient></defs><path d="M 52 48 V 34 Q 52 20 66 20 H 174 Q 188 20 188 34 V 48 Z" fill="url(#drive-cap)"/><path d="M 52 48 H 188 V 206 Q 188 220 174 220 H 66 Q 52 220 52 206 Z" fill="url(#drive-body)"/><rect x="52" y="20" width="136" height="200" rx="14" fill="none" stroke="#c6c6cb" stroke-width="2"/><circle cx="172" cy="202" r="4" fill="#c2c2c7"/><g color="#aeaeb4" transform="translate(39.27 51.35) scale(0.67)"><g transform="rotate(-8 120 124)"><path d="M 104 84 V 150 Q 104 164 118 164 Q 140 164 168 142" fill="none" stroke="#aeaeb4" stroke-width="16" stroke-linecap="round" stroke-linejoin="round"/><circle cx="78" cy="92" r="12" fill="#aeaeb4"/><circle cx="162" cy="92" r="12" fill="#aeaeb4"/></g></g></svg>
